<svg xmlns="http://www.w3.org/2000/svg" viewBox="0 0 96 96" fill="none">
  <defs>
    <linearGradient id="g4" x1="14" y1="12" x2="84" y2="84" gradientUnits="userSpaceOnUse">
      <stop stop-color="#E7FFF3"/>
      <stop offset="1" stop-color="#A5ECCC"/>
    </linearGradient>
  </defs>
  <rect x="8" y="8" width="80" height="80" rx="24" fill="url(#g4)"/>
  <rect x="20" y="30" width="56" height="36" rx="10" fill="#F9FFFC" stroke="#13966A" stroke-width="3"/>
  <circle cx="48" cy="48" r="10" fill="#22B37F" opacity=".18"/>
  <path d="M44 42C44 40.3 45.6 39 48 39C50.1 39 51.7 39.9 52 41.2M44 54C44.3 55.7 46 57 48.2 57C50.6 57 52.3 55.7 52.3 54C52.3 49.8 44.2 51 44.2 46.8C44.2 45.1 45.8 43.8 48 43.8C50 43.8 51.5 44.7 51.9 46" stroke="#0E7F5B" stroke-width="3" stroke-linecap="round"/>
</svg>
