<svg xmlns="http://www.w3.org/2000/svg" viewBox="0 0 96 96" fill="none">
  <defs>
    <linearGradient id="g6" x1="10" y1="12" x2="84" y2="84" gradientUnits="userSpaceOnUse">
      <stop stop-color="#E7FFF4"/>
      <stop offset="1" stop-color="#A6EDCE"/>
    </linearGradient>
  </defs>
  <rect x="8" y="8" width="80" height="80" rx="24" fill="url(#g6)"/>
  <path d="M28 28H68C71.3 28 74 30.7 74 34V52C74 55.3 71.3 58 68 58H46L34 66V58H28C24.7 58 22 55.3 22 52V34C22 30.7 24.7 28 28 28Z" fill="#F9FFFC" stroke="#129468" stroke-width="3"/>
  <path d="M44.5 40C44.8 37.8 46.6 36.3 49.2 36.3C51.8 36.3 53.5 37.7 53.5 39.8C53.5 41.4 52.5 42.5 50.6 43.5C48.9 44.4 48.2 45.1 48.2 46.8V47.2" stroke="#0E7E5A" stroke-width="3" stroke-linecap="round"/>
  <circle cx="48.2" cy="52.2" r="1.8" fill="#0E7E5A"/>
</svg>
